<?xml version='1.0' encoding='utf-8'?>
<svg xmlns="http://www.w3.org/2000/svg" width="1920" height="1080" viewBox="0 0 1920 1080" data-theme="light">
  <style>
        @font-face {
            font-family: 'Inter';
            src: url('assets/fonts/Inter-Regular.ttf') format('truetype');
            font-weight: 400;
            font-style: normal;
            font-display: swap;
        }
        @font-face {
            font-family: 'Inter';
            src: url('assets/fonts/Inter-Bold.ttf') format('truetype');
            font-weight: 600;
            font-style: normal;
            font-display: swap;
        }
        @font-face {
            font-family: 'Inter';
            src: url('assets/fonts/Inter-Bold.ttf') format('truetype');
            font-weight: 800;
            font-style: normal;
            font-display: swap;
        }
        
:root {
    --background: #f8fafc;
    --panel: #ffffff;
    --primary-text: #0f172a;
    --muted-text: #64748b;
    --inverse-text: #ffffff;
    --border: #e2e8f0;
    --shadow-color: #000000;
    --icon-pad-bg: #1e293b;
    --art-glow: #0891b2;
    --art-glow-opacity: 0.10;
    --art-sheen: #ffffff;
    --art-sheen-opacity: 0.34;
    --art-shadow: #0f172a;
    --art-shadow-opacity: 0.14;
    --art-muted-line: #94a3b8;
    --art-panel-tint: #f1f5f9;
    --font-family: 'Inter', 'Segoe UI', 'Kalam', Roboto, Helvetica, Arial, sans-serif;
    --radius-xl: 16px;
    --font-family-headline: 'Inter', 'Segoe UI', 'Kalam', Roboto, Helvetica, Arial, sans-serif;
    --font-family-body: 'Inter', 'Segoe UI', 'Kalam', Roboto, Helvetica, Arial, sans-serif;
    --font-heading: 'Inter', 'Segoe UI', 'Kalam', Roboto, Helvetica, Arial, sans-serif;
    --font-body: 'Inter', 'Segoe UI', 'Kalam', Roboto, Helvetica, Arial, sans-serif;
    --font-size-h1: 56px;
    --font-size-h2: 40px;
    --font-size-h3: 28px;
    --font-size-body: 24px;
    --font-size-caption: 18px;
    --secondary-text: var(--muted-text);
    --panel-border: var(--border);
    --font-weight-normal: 400;
    --font-weight-medium: 500;
    --font-weight-semibold: 600;
    --font-weight-bold: 700;
    --spacing-gutter-pct: 0.07;
    --spacing-top-pct: 0.15;
    --spacing-bottom-pct: 0.07;
    --spacing-title-y-pct: 0.055;
    --accent-1: #0891b2;
    --accent-2: #0284c7;
    --accent-3: #2563eb;
    --accent-4: #4f46e5;
    --accent-5: #7c3aed;
    --accent-6: #0d9488;
}
:root[data-theme="dark"] {
    --background: #0f172a;
    --panel: #1e293b;
    --primary-text: #f1f5f9;
    --muted-text: #94a3b8;
    --inverse-text: #0f172a;
    --border: #334155;
    --shadow-color: #000000;
    --icon-pad-bg: #1e293b;
    --art-glow: #7dd3fc;
    --art-glow-opacity: 0.18;
    --art-sheen: #ffffff;
    --art-sheen-opacity: 0.18;
    --art-shadow: #000000;
    --art-shadow-opacity: 0.28;
    --art-muted-line: #64748b;
    --art-panel-tint: #1e293b;
    --accent-1: #22d3ee;
    --accent-2: #38bdf8;
    --accent-3: #60a5fa;
    --accent-4: #818cf8;
    --accent-5: #a78bfa;
    --accent-6: #2dd4bf;
}
:root[data-theme="light"] {
    --background: #f8fafc;
    --panel: #ffffff;
    --primary-text: #0f172a;
    --muted-text: #64748b;
    --inverse-text: #ffffff;
    --border: #e2e8f0;
    --shadow-color: #000000;
    --icon-pad-bg: #1e293b;
    --art-glow: #0891b2;
    --art-glow-opacity: 0.10;
    --art-sheen: #ffffff;
    --art-sheen-opacity: 0.34;
    --art-shadow: #0f172a;
    --art-shadow-opacity: 0.14;
    --art-muted-line: #94a3b8;
    --art-panel-tint: #f1f5f9;
    --accent-1: #0891b2;
    --accent-2: #0284c7;
    --accent-3: #2563eb;
    --accent-4: #4f46e5;
    --accent-5: #7c3aed;
    --accent-6: #0d9488;
}</style>
  <rect x="0" y="0" width="1.92E+3" height="1.08E+3" fill="#252a34" stroke="none" id="programmatic_background"/>
  <line id="HEADER_DECOR" x1="960.0" x2="1080.0" y1="135.0" y2="135.0" stroke="var(--accent-1)" stroke-width="6" stroke-linecap="round"/>
  <defs>
    <pattern id="svgc80d2689-napkin-hatch" patternUnits="userSpaceOnUse" width="12" height="12">
      <path d="M -3 12 L 12 -3 M 0 15 L 15 0" fill="none" stroke="var(--primary-text)" stroke-width="1" stroke-opacity="0.05"/>
    </pattern>
    <radialGradient id="svgc80d2689-universal-edge-vignette" cx="50%" cy="50%" r="72%">
      <stop offset="0%" stop-color="var(--background)" stop-opacity="0"/>
      <stop offset="72%" stop-color="var(--background)" stop-opacity="0.12"/>
      <stop offset="100%" stop-color="var(--primary-text)" stop-opacity="0.08"/>
    </radialGradient>
    <linearGradient id="svgc80d2689-universal-surface-sheen" x1="0%" y1="0%" x2="100%" y2="100%">
      <stop offset="0%" stop-color="var(--art-sheen)" stop-opacity="var(--art-sheen-opacity)"/>
      <stop offset="46%" stop-color="var(--art-sheen)" stop-opacity="0.035"/>
      <stop offset="100%" stop-color="var(--art-panel-tint)" stop-opacity="0.14"/>
    </linearGradient>
    <radialGradient id="svgc80d2689-universal-icon-aura" cx="50%" cy="42%" r="64%">
      <stop offset="0%" stop-color="var(--art-glow)" stop-opacity="var(--art-glow-opacity)"/>
      <stop offset="100%" stop-color="var(--background)" stop-opacity="0"/>
    </radialGradient>
    <filter id="svgc80d2689-text-glow" x="-20%" y="-20%" width="140%" height="140%">
      <feDropShadow dx="0" dy="0" stdDeviation="2" flood-color="#000000" flood-opacity="0.4"/>
    </filter>
    <filter id="svgc80d2689-shadow" x="-30%" y="-30%" width="160%" height="160%">
      <feDropShadow dx="0" dy="2" stdDeviation="3" flood-color="#000000" flood-opacity="0.08"/>
      <feDropShadow dx="0" dy="6" stdDeviation="10" flood-color="#000000" flood-opacity="0.12"/>
    </filter>
    <marker id="svgc80d2689-arrowhead" markerWidth="10" markerHeight="7" refX="9" refY="3.5" orient="auto" markerUnits="strokeWidth">
      <polygon points="0 0, 10 3.5, 0 7" fill="var(--muted-text)" opacity="0.6"/>
    </marker>
  </defs>
  <rect width="100%" height="100%" fill="var(--background)" id="CANVAS_BG"/>
  <rect width="100%" height="100%" fill="url(#svgc80d2689-napkin-hatch)"/>
  <rect id="UNIVERSAL_EDGE_VIGNETTE" width="100%" height="100%" fill="url(#svgc80d2689-universal-edge-vignette)" opacity="0.62"/>
  <text id="TITLE" x="960.0" y="59" font-size="63" font-weight="700" fill="#0f172a" style="font-size: 60px; font-family: Inter, Segoe UI, Kalam, Roboto, Helvetica, Arial, sans-serif; font-weight: 700; letter-spacing:-1.2px;" text-anchor="middle" data-final-font-size="60">
    <tspan x="960.0" dy="68.00px">The Mechanics of the MJ-12 Myth</tspan>
  </text>
  <rect id="TITLE_FRAME" x="134" y="59" width="1652" height="103" fill="none"/>
  <g id="DIAGRAM_SCALER" transform="translate(48.6, 35.1) scale(0.95)">
    <text x="570" y="570" font-size="90" font-weight="900" fill="var(--muted-text)" opacity="0.5" text-anchor="middle" dominant-baseline="middle">+</text>
    <text x="1020" y="570" font-size="90" font-weight="900" fill="var(--muted-text)" opacity="0.5" text-anchor="middle" dominant-baseline="middle">+</text>
    <text x="1470" y="570" font-size="90" font-weight="900" fill="var(--muted-text)" opacity="0.5" text-anchor="middle" dominant-baseline="middle">=</text>
    <g transform="translate(300.0, 540.0)">
      <rect id="ITEM_1_BG" x="-150" y="-150" width="300" height="300" rx="24" fill="var(--panel)" stroke="var(--accent-1)" stroke-width="2"/>
      <text id="ITEM_1_HEAD" text-anchor="middle" font-weight="bold" font-size="30" fill="var(--primary-text)" x="0.0" y="22.0" data-bg-id="ITEM_1_BG" fill-opacity="1.0" style="font-size: 27px; font-family: Inter, Segoe UI, Kalam, Roboto, Helvetica, Arial, sans-serif; font-weight: 700; letter-spacing:-0.4px;" data-final-font-size="27">
        <tspan x="0.0" dy="28.58px">Roswell Foundation</tspan>
      </text>
      <rect id="ITEM_1_HEAD_FRAME" x="-120" y="22" width="240" height="45" fill="none"/>
      <text id="ITEM_1_BODY" text-anchor="middle" font-size="18" fill="var(--primary-text)" x="0.0" y="72.0" data-bg-id="ITEM_1_BG" style="font-size: 26px; font-family: Inter, Segoe UI, Kalam, Roboto, Helvetica, Arial, sans-serif; font-weight: 400;" data-final-font-size="26">
        <tspan x="0.0" dy="26.86px">Provides a concrete</tspan>
        <tspan x="0.0" dy="29.90px">desert crash and public</tspan>
        <tspan x="0.0" dy="29.90px">reversal</tspan>
      </text>
      <rect id="ITEM_1_BODY_FRAME" fill="none" height="120" width="304" x="-152" y="72.0" data-side-overflow-fix="38.0|38.0"/>
      <circle id="ITEM_1_PAD" cx="0" cy="-80" r="58" fill="var(--icon-pad-bg)" stroke="var(--primary-text)" opacity="0.9" fill-opacity="0.9" stroke-width="2"/>
      <circle id="ITEM_1_PAD_INNER" cx="0" cy="-80" r="45.24" fill="var(--accent-1)" fill-opacity="0.22"/>
      <circle cx="0" cy="-80" r="46.4" fill="none" stroke="var(--accent-1)" stroke-width="3" stroke-dasharray="6 4"/>
      <g id="ITEM_1_ICON" transform="translate(-45.0, -125.0)" data-icon-size="90" stroke-dasharray="6 4">
        <g transform="translate(-6.702857142857152,-6.7028571428571455) scale(3.2314285714285718)">
          <path d="M11 7C11 4.24 13.24 2 16 2C18.76 2 21 4.24 21 7V13H22.32C23.25 13 24 12.25 24 11.32V8.5C24 7.12 25.12 6 26.5 6C27.88 6 29 7.12 29 8.5V11.32C29 15 26 18 22.32 18H21V29.06C21 29.58 20.58 30 20.06 30H11.94C11.42 30 11 29.58 11 29.06V25H9.68C5.99 25 3 22.01 3 18.32V11.5C3 10.14 4.09 9.03 5.45 9C6.85 8.97 8 10.15 8 11.55V18.32C8 19.25 8.75 20 9.68 20H11V7Z" fill="#86D72F"/>
          <path d="M13 21.9999V2.99992C13.31 2.76992 13.64 2.56992 14 2.41992V29.9999H13V22.9999H9.68C7.1 22.9999 5 20.8999 5 18.3199V11.4999C5 11.2299 5.22 11.0099 5.49 10.9999H5.5C5.77 10.9999 6 11.2599 6 11.5499V18.3199C6 20.3499 7.65 21.9999 9.68 21.9999H13Z" fill="#44911B"/>
          <path d="M18 29.9999H19V2.99992C18.69 2.76992 18.36 2.56992 18 2.41992V29.9999Z" fill="#44911B"/>
          <path d="M26 6.04992C26.16 6.01992 26.33 5.99992 26.5 5.99992C26.67 5.99992 26.84 6.01992 27 6.04992V11.3199C27 13.8999 24.9 15.9999 22.32 15.9999H21V14.9999H22.32C24.35 14.9999 26 13.3499 26 11.3199V6.04992Z" fill="#44911B"/>
          <path d="M19.44 3.84999L20.15 3.13999C20.35 2.93999 20.66 2.93999 20.86 3.13999C21.06 3.33999 21.06 3.64999 20.86 3.84999L20.15 4.55999C19.95 4.75999 19.64 4.75999 19.44 4.55999C19.24 4.36999 19.24 4.04999 19.44 3.84999Z" fill="#C3EF3C"/>
          <path d="M11.5 9.99999H10.5C10.22 9.99999 10 9.77999 10 9.49999C10 9.21999 10.22 8.99999 10.5 8.99999H11.5C11.78 8.99999 12 9.21999 12 9.49999C12 9.77999 11.78 9.99999 11.5 9.99999Z" fill="#C3EF3C"/>
          <path d="M11.85 3.14999L12.56 3.84999C12.76 4.04999 12.76 4.36999 12.56 4.56999C12.36 4.76999 12.05 4.76999 11.85 4.56999L11.14 3.85999C10.94 3.65999 10.94 3.34999 11.14 3.14999C11.34 2.94999 11.65 2.94999 11.85 3.14999Z" fill="#C3EF3C"/>
          <path d="M27.15 15.44L27.86 16.15C28.06 16.35 28.06 16.66 27.86 16.86C27.66 17.06 27.35 17.06 27.15 16.86L26.44 16.15C26.24 15.95 26.24 15.64 26.44 15.44C26.63 15.24 26.95 15.24 27.15 15.44Z" fill="#C3EF3C"/>
          <path d="M3.15 9.84999L3.85 10.56C4.05 10.76 4.37 10.76 4.57 10.56C4.77 10.36 4.77 10.05 4.57 9.84999L3.86 9.13999C3.66 8.93999 3.35 8.93999 3.15 9.13999C2.95 9.33999 2.95 9.64999 3.15 9.84999Z" fill="#C3EF3C"/>
          <path d="M24.85 7.55999L24.14 6.84999C23.94 6.64999 23.94 6.33999 24.14 6.13999C24.34 5.93999 24.65 5.93999 24.85 6.13999L25.56 6.84999C25.76 7.04999 25.76 7.35999 25.56 7.55999C25.37 7.75999 25.05 7.75999 24.85 7.55999Z" fill="#C3EF3C"/>
          <path d="M4.85 23.86L5.56 23.15C5.76 22.95 5.76 22.63 5.56 22.44C5.36 22.24 5.05 22.24 4.85 22.44L4.14 23.15C3.94 23.35 3.94 23.66 4.14 23.86C4.34 24.06 4.65 24.06 4.85 23.86Z" fill="#C3EF3C"/>
          <path d="M7.44 14.85L8.15 14.14C8.35 13.94 8.66 13.94 8.86 14.14C9.06 14.34 9.06 14.65 8.86 14.85L8.15 15.56C7.95 15.76 7.64 15.76 7.44 15.56C7.24 15.37 7.24 15.05 7.44 14.85Z" fill="#C3EF3C"/>
          <path d="M21.5 24H20.5C20.22 24 20 24.22 20 24.5C20 24.78 20.22 25 20.5 25H21.5C21.78 25 22 24.78 22 24.5C22 24.22 21.78 24 21.5 24Z" fill="#C3EF3C"/>
          <path d="M11.5 27H10.5C10.22 27 10 26.78 10 26.5C10 26.22 10.22 26 10.5 26H11.5C11.78 26 12 26.22 12 26.5C12 26.78 11.78 27 11.5 27Z" fill="#C3EF3C"/>
          <path d="M18 11H19.5C19.78 11 20 11.22 20 11.5C20 11.78 19.78 12 19.5 12H18V11Z" fill="#C3EF3C"/>
          <path d="M12.19 16.15L14 18V16.56L12.9 15.44C12.7 15.24 12.39 15.24 12.19 15.44C11.99 15.64 11.99 15.95 12.19 16.15Z" fill="#C3EF3C"/>
          <path d="M18.02 22.12L19.83 20.27C20.03 20.08 20.03 19.76 19.83 19.56C19.63 19.36 19.32 19.36 19.12 19.56L18.02 20.68V22.12Z" fill="#C3EF3C"/>
        </g>
      </g>
    </g>
    <g transform="translate(795.0, 540.0)">
      <rect id="ITEM_2_BG" x="-150" y="-150" width="300" height="300" rx="24" fill="var(--panel)" stroke="var(--accent-2)" stroke-width="2"/>
      <text id="ITEM_2_HEAD" text-anchor="middle" font-weight="bold" font-size="30" fill="var(--primary-text)" x="0.0" y="22.0" data-bg-id="ITEM_2_BG" fill-opacity="1.0" style="font-size: 24px; font-family: Inter, Segoe UI, Kalam, Roboto, Helvetica, Arial, sans-serif; font-weight: 700; letter-spacing:-0.4px;" data-final-font-size="24">
        <tspan x="0.0" dy="27.90px">Bureaucratic Texture</tspan>
      </text>
      <rect id="ITEM_2_HEAD_FRAME" x="-120" y="22" width="240" height="45" fill="none"/>
      <text id="ITEM_2_BODY" text-anchor="middle" font-size="18" fill="var(--primary-text)" x="0.5" y="72.0" data-bg-id="ITEM_2_BG" style="font-size: 26px; font-family: Inter, Segoe UI, Kalam, Roboto, Helvetica, Arial, sans-serif; font-weight: 400;" data-final-font-size="26">
        <tspan x="0.5" dy="26.86px">Adds official-looking</tspan>
        <tspan x="0.5" dy="29.90px">memos and named</tspan>
        <tspan x="0.5" dy="29.90px">senior figures</tspan>
      </text>
      <rect id="ITEM_2_BODY_FRAME" fill="none" height="120" width="305" x="-152" y="72.0" data-side-overflow-fix="38.0|37.0"/>
      <circle id="ITEM_2_PAD" cx="0" cy="-80" r="58" fill="var(--icon-pad-bg)" stroke="var(--primary-text)" opacity="0.9" fill-opacity="0.9" stroke-width="2"/>
      <circle id="ITEM_2_PAD_INNER" cx="0" cy="-80" r="45.24" fill="var(--accent-2)" fill-opacity="0.22"/>
      <circle cx="0" cy="-80" r="46.4" fill="none" stroke="var(--accent-2)" stroke-width="3" stroke-dasharray="6 4"/>
      <g id="ITEM_2_ICON" transform="translate(-45.0, -125.0)" data-icon-size="90" stroke-dasharray="6 4">
        <g transform="translate(-8.61777777777778,-10.712222222222223) scale(4.468148148148148)" vector-effect="non-scaling-stroke" stroke-width="2.79" stroke-linecap="round" stroke-linejoin="round" stroke-opacity="1.0">
          <path d="M3 6h18" vector-effect="non-scaling-stroke" fill="none" stroke="#f1f5f9"/>
          <path d="M4 6v13" vector-effect="non-scaling-stroke" fill="none" stroke="#f1f5f9"/>
          <path d="M20 19v-13" vector-effect="non-scaling-stroke" fill="none" stroke="#f1f5f9"/>
          <path d="M4 10h16" vector-effect="non-scaling-stroke" fill="none" stroke="#f1f5f9"/>
          <path d="M15 6v8a2 2 0 0 0 2 2h3" vector-effect="non-scaling-stroke" fill="none" stroke="#f1f5f9"/>
        </g>
      </g>
    </g>
    <g transform="translate(1245.0, 540.0)">
      <rect id="ITEM_3_BG" x="-150" y="-150" width="300" height="300" rx="24" fill="var(--panel)" stroke="var(--accent-3)" stroke-width="2"/>
      <text id="ITEM_3_HEAD" text-anchor="middle" font-weight="bold" font-size="30" fill="var(--accent-3)" x="0.0" y="22.0" data-bg-id="ITEM_3_BG" fill-opacity="1.0" style="font-size: 30px; font-family: Inter, Segoe UI, Kalam, Roboto, Helvetica, Arial, sans-serif; font-weight: 700; letter-spacing:-0.4px;" data-final-font-size="30">
        <tspan x="0.0" dy="30.75px">Cold War Context</tspan>
      </text>
      <rect id="ITEM_3_HEAD_FRAME" x="-120" y="22" width="240" height="45" fill="none"/>
      <text id="ITEM_3_BODY" text-anchor="middle" font-size="18" fill="var(--primary-text)" x="0.0" y="72.0" data-bg-id="ITEM_3_BG" style="font-size: 26px; font-family: Inter, Segoe UI, Kalam, Roboto, Helvetica, Arial, sans-serif; font-weight: 400;" data-final-font-size="26">
        <tspan x="0.0" dy="32.84px">Links crash to Project</tspan>
        <tspan x="0.0" dy="29.90px">SIGN and Project GRUDGE</tspan>
      </text>
      <rect id="ITEM_3_BODY_FRAME" fill="none" height="120" width="304" x="-152" y="72.0" data-side-overflow-fix="38.0|38.0"/>
      <circle id="ITEM_3_PAD" cx="0" cy="-80" r="58" fill="var(--icon-pad-bg)" stroke="var(--primary-text)" opacity="0.9" fill-opacity="0.9" stroke-width="2"/>
      <circle id="ITEM_3_PAD_INNER" cx="0" cy="-80" r="45.24" fill="var(--accent-3)" fill-opacity="0.22"/>
      <circle cx="0" cy="-80" r="46.4" fill="none" stroke="var(--accent-3)" stroke-width="3" stroke-dasharray="6 4"/>
      <g id="ITEM_3_ICON" transform="translate(-45.0, -125.0)" data-icon-size="90" stroke-dasharray="6 4">
        <g transform="translate(-6.645663716814162,-8.647433628318586) scale(3.20283185840708)">
          <path d="M5 27.99C5 28.75 5.61 29.36 6.37 29.36C7.13 29.36 7.74 28.75 7.74 27.99V26.62H5V27.99ZM24.15 27.99C24.15 28.75 24.76 29.36 25.52 29.36C26.27 29.36 26.89 28.75 26.89 27.99V26.62H24.15V27.99Z" fill="#212121"/>
          <path d="M27 5C27 5.55228 26.5523 6 26 6C25.7251 6 25.4761 5.88908 25.2954 5.70956L7.9667 9.12058L7.77356 8.1394L25.0336 4.74189C25.1474 4.3147 25.537 4 26 4C26.5523 4 27 4.44772 27 5Z" fill="#9B9B9B"/>
          <path d="M6.84005 11.85C7.96671 11.85 8.88005 10.9367 8.88005 9.81002C8.88005 8.68336 7.96671 7.77002 6.84005 7.77002C5.71338 7.77002 4.80005 8.68336 4.80005 9.81002C4.80005 10.9367 5.71338 11.85 6.84005 11.85Z" fill="#D3D3D3"/>
          <path d="M27.38 9.81006H4.63C3.18 9.81006 2 10.9901 2 12.4401V24.6901C2 26.1401 3.18 27.3201 4.63 27.3201H27.38C28.83 27.3201 30.01 26.1401 30.01 24.6901V12.4301C30 10.9801 28.83 9.81006 27.38 9.81006Z" fill="#9B9B9B"/>
          <path d="M26.32 12.76H18.45C17.79 12.76 17.25 13.3 17.25 13.96V18.79C17.25 19.45 17.79 19.99 18.45 19.99H26.32C26.98 19.99 27.52 19.45 27.52 18.79V13.96C27.52 13.3 26.98 12.76 26.32 12.76Z" fill="#83CBFF"/>
          <path d="M19.88 15.83C19.44 15.83 19.09 16.19 19.09 16.62V19.98H20.68V16.62C20.67 16.19 20.32 15.83 19.88 15.83Z" fill="#F8312F"/>
          <path d="M14.83 14.12C15.2 14.12 15.51 13.82 15.51 13.44C15.51 13.07 15.21 12.76 14.83 12.76H5.18C4.81 12.76 4.5 13.06 4.5 13.44C4.5 13.81 4.8 14.12 5.18 14.12H14.83ZM15.51 15.96C15.51 16.34 15.2 16.64 14.83 16.64H5.18C4.8 16.64 4.5 16.33 4.5 15.96C4.5 15.58 4.81 15.28 5.18 15.28H14.83C15.21 15.27 15.51 15.58 15.51 15.96ZM14.83 19.15C15.2 19.15 15.51 18.85 15.51 18.47C15.51 18.1 15.21 17.79 14.83 17.79H5.18C4.81 17.79 4.5 18.09 4.5 18.47C4.5 18.84 4.8 19.15 5.18 19.15H14.83ZM15.51 20.9901C15.51 21.3701 15.2 21.6701 14.83 21.6701H5.18C4.8 21.6701 4.5 21.3601 4.5 20.9901C4.5 20.6101 4.81 20.3101 5.18 20.3101H14.83C15.21 20.3 15.51 20.6101 15.51 20.9901ZM15.51 23.5001C15.51 23.8801 15.2 24.1801 14.83 24.1801H5.18C4.8 24.1801 4.5 23.8701 4.5 23.5001C4.5 23.1201 4.81 22.8201 5.18 22.8201H14.83C15.21 22.8201 15.51 23.1301 15.51 23.5001Z" fill="#212121"/>
          <path d="M21.04 22.9199C21.04 23.6103 20.4804 24.1699 19.79 24.1699C19.0997 24.1699 18.54 23.6103 18.54 22.9199C18.54 22.2296 19.0997 21.6699 19.79 21.6699C20.4804 21.6699 21.04 22.2296 21.04 22.9199ZM26.6201 22.9199C26.6201 23.6103 26.0605 24.1699 25.3701 24.1699C24.6798 24.1699 24.1201 23.6103 24.1201 22.9199C24.1201 22.2296 24.6798 21.6699 25.3701 21.6699C26.0605 21.6699 26.6201 22.2296 26.6201 22.9199Z" fill="#F4F4F4"/>
        </g>
      </g>
    </g>
    <g transform="translate(1695.0, 540.0)">
      <rect id="ITEM_4_BG" x="-150" y="-150" width="300" height="300" rx="24" fill="var(--panel)" stroke="var(--accent-4)" stroke-width="2"/>
      <text id="ITEM_4_HEAD" text-anchor="middle" font-weight="bold" font-size="30" fill="var(--accent-4)" x="0.0" y="22.0" data-bg-id="ITEM_4_BG" fill-opacity="1.0" style="font-size: 25px; font-family: Inter, Segoe UI, Kalam, Roboto, Helvetica, Arial, sans-serif; font-weight: 700; letter-spacing:-0.4px;" data-final-font-size="25">
        <tspan x="0.0" dy="28.12px">Narrative Synthesis</tspan>
      </text>
      <rect id="ITEM_4_HEAD_FRAME" x="-120" y="22" width="240" height="45" fill="none"/>
      <text id="ITEM_4_BODY" text-anchor="middle" font-size="18" fill="var(--primary-text)" x="0.0" y="72.0" data-bg-id="ITEM_4_BG" style="font-size: 26px; font-family: Inter, Segoe UI, Kalam, Roboto, Helvetica, Arial, sans-serif; font-weight: 400;" data-final-font-size="26">
        <tspan x="0.0" dy="26.86px">Combines isolated rumors</tspan>
        <tspan x="0.0" dy="29.90px">into a systemic secret</tspan>
        <tspan x="0.0" dy="29.90px">architecture</tspan>
      </text>
      <rect id="ITEM_4_BODY_FRAME" fill="none" height="120" width="304" x="-152" y="72.0" data-side-overflow-fix="38.0|38.0"/>
      <circle id="ITEM_4_PAD" cx="0" cy="-80" r="58" fill="var(--icon-pad-bg)" stroke="var(--primary-text)" opacity="0.9" fill-opacity="0.9" stroke-width="2"/>
      <circle id="ITEM_4_PAD_INNER" cx="0" cy="-80" r="45.24" fill="var(--accent-4)" fill-opacity="0.22"/>
      <circle cx="0" cy="-80" r="46.4" fill="none" stroke="var(--accent-4)" stroke-width="3" stroke-dasharray="6 4"/>
      <g id="ITEM_4_ICON" transform="translate(-45.0, -125.0)" data-icon-size="90" stroke-dasharray="6 4">
        <g transform="translate(-6.7028571428571455,-3.471428571428577) scale(0.40392857142857147)" vector-effect="non-scaling-stroke" stroke-width="2.79" stroke-linecap="round" stroke-linejoin="round" stroke-opacity="1.0">
          <path d="M24,176V64A24,24,0,0,1,48,40H64V152H48a24,24,0,0,0,0,48H232V64H64" fill="none" stroke="#f1f5f9" vector-effect="non-scaling-stroke"/>
          <line x1="128" y1="96" x2="128" y2="160" fill="none" stroke="#f1f5f9" vector-effect="non-scaling-stroke"/>
          <line x1="168" y1="96" x2="168" y2="160" fill="none" stroke="#f1f5f9" vector-effect="non-scaling-stroke"/>
          <line x1="104" y1="112" x2="192" y2="112" fill="none" stroke="#f1f5f9" vector-effect="non-scaling-stroke"/>
          <line x1="104" y1="144" x2="192" y2="144" fill="none" stroke="#f1f5f9" vector-effect="non-scaling-stroke"/>
        </g>
      </g>
    </g>
  </g>
</svg>
