<?xml version='1.0' encoding='utf-8'?>
<svg xmlns="http://www.w3.org/2000/svg" width="1920" height="1080" viewBox="0 0 1920 1080" data-theme="dark">
  <style>
        @font-face {
            font-family: 'Inter';
            src: url('assets/fonts/Inter-Regular.ttf') format('truetype');
            font-weight: 400;
            font-style: normal;
            font-display: swap;
        }
        @font-face {
            font-family: 'Inter';
            src: url('assets/fonts/Inter-Bold.ttf') format('truetype');
            font-weight: 600;
            font-style: normal;
            font-display: swap;
        }
        @font-face {
            font-family: 'Inter';
            src: url('assets/fonts/Inter-Bold.ttf') format('truetype');
            font-weight: 800;
            font-style: normal;
            font-display: swap;
        }
        
:root {
    --background: #0f172a;
    --panel: #1e293b;
    --primary-text: #f1f5f9;
    --muted-text: #94a3b8;
    --inverse-text: #0f172a;
    --border: #334155;
    --shadow-color: #000000;
    --icon-pad-bg: #1e293b;
    --art-glow: #7dd3fc;
    --art-glow-opacity: 0.18;
    --art-sheen: #ffffff;
    --art-sheen-opacity: 0.18;
    --art-shadow: #000000;
    --art-shadow-opacity: 0.28;
    --art-muted-line: #64748b;
    --art-panel-tint: #1e293b;
    --font-family: 'Inter', 'Segoe UI', 'Kalam', Roboto, Helvetica, Arial, sans-serif;
    --radius-xl: 16px;
    --font-family-headline: 'Inter', 'Segoe UI', 'Kalam', Roboto, Helvetica, Arial, sans-serif;
    --font-family-body: 'Inter', 'Segoe UI', 'Kalam', Roboto, Helvetica, Arial, sans-serif;
    --font-heading: 'Inter', 'Segoe UI', 'Kalam', Roboto, Helvetica, Arial, sans-serif;
    --font-body: 'Inter', 'Segoe UI', 'Kalam', Roboto, Helvetica, Arial, sans-serif;
    --font-size-h1: 56px;
    --font-size-h2: 40px;
    --font-size-h3: 28px;
    --font-size-body: 24px;
    --font-size-caption: 18px;
    --secondary-text: var(--muted-text);
    --panel-border: var(--border);
    --font-weight-normal: 400;
    --font-weight-medium: 500;
    --font-weight-semibold: 600;
    --font-weight-bold: 700;
    --spacing-gutter-pct: 0.07;
    --spacing-top-pct: 0.15;
    --spacing-bottom-pct: 0.07;
    --spacing-title-y-pct: 0.055;
    --accent-1: #60a5fa;
    --accent-2: #4ade80;
    --accent-3: #f97316;
    --accent-4: #a78bfa;
    --accent-5: #38bdf8;
    --accent-6: #94a3b8;
}
:root[data-theme="dark"] {
    --background: #0f172a;
    --panel: #1e293b;
    --primary-text: #f1f5f9;
    --muted-text: #94a3b8;
    --inverse-text: #0f172a;
    --border: #334155;
    --shadow-color: #000000;
    --icon-pad-bg: #1e293b;
    --art-glow: #7dd3fc;
    --art-glow-opacity: 0.18;
    --art-sheen: #ffffff;
    --art-sheen-opacity: 0.18;
    --art-shadow: #000000;
    --art-shadow-opacity: 0.28;
    --art-muted-line: #64748b;
    --art-panel-tint: #1e293b;
    --accent-1: #60a5fa;
    --accent-2: #4ade80;
    --accent-3: #f97316;
    --accent-4: #a78bfa;
    --accent-5: #38bdf8;
    --accent-6: #94a3b8;
}
:root[data-theme="light"] {
    --background: #f8fafc;
    --panel: #ffffff;
    --primary-text: #0f172a;
    --muted-text: #64748b;
    --inverse-text: #ffffff;
    --border: #e2e8f0;
    --shadow-color: #000000;
    --icon-pad-bg: #1e293b;
    --art-glow: #0891b2;
    --art-glow-opacity: 0.10;
    --art-sheen: #ffffff;
    --art-sheen-opacity: 0.34;
    --art-shadow: #0f172a;
    --art-shadow-opacity: 0.14;
    --art-muted-line: #94a3b8;
    --art-panel-tint: #f1f5f9;
    --accent-1: #2563eb;
    --accent-2: #16a34a;
    --accent-3: #ea580c;
    --accent-4: #7c3aed;
    --accent-5: #0284c7;
    --accent-6: #475569;
}</style>
  <rect x="0" y="0" width="1.92E+3" height="1.08E+3" fill="#252a34" stroke="none" id="programmatic_background"/>
  <line id="HEADER_DECOR" x1="960.0" x2="1080.0" y1="135.0" y2="135.0" stroke="var(--accent-1)" stroke-width="6" stroke-linecap="round"/>
  <defs>
    <pattern id="svga279bc5d-napkin-hatch" patternUnits="userSpaceOnUse" width="12" height="12">
      <path d="M -3 12 L 12 -3 M 0 15 L 15 0" fill="none" stroke="var(--primary-text)" stroke-width="1" stroke-opacity="0.05"/>
    </pattern>
    <filter id="svga279bc5d-shadow" x="-30%" y="-30%" width="160%" height="160%">
      <feDropShadow dx="0" dy="2" stdDeviation="3" flood-color="#000000" flood-opacity="0.08"/>
      <feDropShadow dx="0" dy="6" stdDeviation="10" flood-color="#000000" flood-opacity="0.12"/>
    </filter>
    <marker id="svga279bc5d-arrowhead" markerWidth="10" markerHeight="10" refX="9" refY="5" orient="auto">
      <path d="M 0 0 L 10 5 L 0 10 Z" fill="var(--accent-1)"/>
    </marker>
    <filter id="svga279bc5d-text-glow" x="-20%" y="-20%" width="140%" height="140%">
      <feDropShadow dx="0" dy="0" stdDeviation="2" flood-color="#000000" flood-opacity="0.4"/>
    </filter>
    <radialGradient id="svga279bc5d-universal-edge-vignette" cx="50%" cy="50%" r="72%">
      <stop offset="0%" stop-color="var(--background)" stop-opacity="0"/>
      <stop offset="72%" stop-color="var(--background)" stop-opacity="0.12"/>
      <stop offset="100%" stop-color="var(--primary-text)" stop-opacity="0.08"/>
    </radialGradient>
    <linearGradient id="svga279bc5d-universal-surface-sheen" x1="0%" y1="0%" x2="100%" y2="100%">
      <stop offset="0%" stop-color="var(--art-sheen)" stop-opacity="var(--art-sheen-opacity)"/>
      <stop offset="46%" stop-color="var(--art-sheen)" stop-opacity="0.035"/>
      <stop offset="100%" stop-color="var(--art-panel-tint)" stop-opacity="0.14"/>
    </linearGradient>
    <radialGradient id="svga279bc5d-universal-icon-aura" cx="50%" cy="42%" r="64%">
      <stop offset="0%" stop-color="var(--art-glow)" stop-opacity="var(--art-glow-opacity)"/>
      <stop offset="100%" stop-color="var(--background)" stop-opacity="0"/>
    </radialGradient>
  </defs>
  <rect width="100%" height="100%" fill="var(--background)" id="CANVAS_BG"/>
  <rect width="100%" height="100%" fill="url(#svga279bc5d-napkin-hatch)"/>
  <rect id="UNIVERSAL_EDGE_VIGNETTE" width="100%" height="100%" fill="url(#svga279bc5d-universal-edge-vignette)" opacity="0.62"/>
  <text id="TITLE" x="960.0" y="59" text-anchor="middle" font-weight="700" font-size="72" fill="#f1f5f9" style="font-size: 60px; font-family: Inter, Segoe UI, Kalam, Roboto, Helvetica, Arial, sans-serif; font-weight: 700; letter-spacing:-1.2px;" data-final-font-size="60">
    <tspan x="960.0" dy="68.00px">MJ-12 Document Classification Flaws</tspan>
  </text>
  <rect id="TITLE_FRAME" x="134" y="59" width="1652" height="103" fill="none"/>
  <g id="DIAGRAM_SCALER" transform="translate(28.8, 27.0) scale(0.97)">
    <path d="M 960 360 L 960 450" stroke="var(--muted-text)" stroke-width="3.0" fill="none" opacity="0.52"/>
    <path d="M 210.0 450 L 1710.0 450" stroke="var(--muted-text)" stroke-width="3.0" fill="none" opacity="0.52"/>
    <path d="M 210.0 450 L 210.0 570" stroke="var(--muted-text)" stroke-width="3.0" fill="none" opacity="0.52"/>
    <path d="M 693.3 450 L 693.3 570" stroke="var(--muted-text)" stroke-width="3.0" fill="none" opacity="0.52"/>
    <path d="M 1226.7 450 L 1226.7 570" stroke="var(--muted-text)" stroke-width="3.0" fill="none" opacity="0.52"/>
    <path d="M 1710.0 450 L 1710.0 570" stroke="var(--muted-text)" stroke-width="3.0" fill="none" opacity="0.52"/>
    <g transform="translate(960.0, 270.0)">
      <rect id="ITEM_1_BG" x="-210" y="-90" width="420" height="180" rx="24" fill="var(--panel)" fill-opacity="0.86" stroke="var(--primary-text)" stroke-width="2.6"/>
      <circle id="ITEM_1_PAD" cx="0" cy="40" r="42" fill="var(--icon-pad-bg)" stroke="var(--primary-text)" opacity="0.9" fill-opacity="0.9" stroke-width="2"/>
      <circle id="ITEM_1_PAD_INNER" cx="0" cy="40" r="32.76" fill="var(--accent-5)" fill-opacity="0.22"/>
      <circle cx="0" cy="40" r="33.6" fill="none" stroke="var(--accent-1)" stroke-width="3" stroke-dasharray="6 4"/>
      <g id="ITEM_1_ICON" transform="translate(-36.0, 4.0)" data-icon-size="72">
        <g transform="translate(-7.071428571428571,-5.142857142857143) scale(2.5714285714285716)">
          <path d="M9 3C9 2.44771 9.44772 2 10 2H22C22.5523 2 23 2.44772 23 3V7.25209C21.0298 5.83476 18.6124 5 16 5C13.3876 5 10.9702 5.83476 9 7.25209V3Z" fill="#3F5FFF"/>
          <path d="M16 27C18.6124 27 21.0298 26.1652 23 24.7479V29C23 29.5523 22.5523 30 22 30H10C9.44772 30 9 29.5523 9 29V24.7479C10.9702 26.1652 13.3876 27 16 27Z" fill="#3F5FFF"/>
          <path d="M27 14C26.4477 14 26 14.4477 26 15V17C26 17.5523 26.4477 18 27 18H28.5C29.0523 18 29.5 17.5523 29.5 17V15C29.5 14.4477 29.0523 14 28.5 14H27Z" fill="#3F5FFF"/>
          <path d="M28 16C28 22.6274 22.6274 28 16 28C9.37258 28 4 22.6274 4 16C4 9.37258 9.37258 4 16 4C22.6274 4 28 9.37258 28 16Z" fill="#A4AEEB"/>
          <path d="M25 16C25 20.9706 20.9706 25 16 25C11.0294 25 7 20.9706 7 16C7 11.0294 11.0294 7 16 7C20.9706 7 25 11.0294 25 16Z" fill="#5235A6"/>
          <path d="M16 8C15.4477 8 15 8.44772 15 9V15C15 15.2108 15.0652 15.4064 15.1766 15.5676L11.9103 19.2092C11.5415 19.6203 11.5758 20.2526 11.987 20.6213C12.3981 20.9901 13.0303 20.9558 13.3991 20.5446L16.7376 16.8225C17.054 16.4698 17.0737 15.9543 16.8132 15.5821C16.9308 15.4181 17 15.2171 17 15V9C17 8.44772 16.5523 8 16 8Z" fill="white"/>
          <path d="M18 16C18 17.1046 17.1046 18 16 18C14.8954 18 14 17.1046 14 16C14 14.8954 14.8954 14 16 14C17.1046 14 18 14.8954 18 16Z" fill="#FCD53F"/>
        </g>
      </g>
      <text id="ITEM_1_HEAD" x="0.0" y="-80.0" text-anchor="middle" font-weight="bold" font-size="36" fill="var(--accent-5)" data-bg-id="ITEM_1_BG" fill-opacity="1.0" stroke="none" style="font-size: 30px; font-family: Inter, Segoe UI, Kalam, Roboto, Helvetica, Arial, sans-serif; font-weight: 700; letter-spacing:-0.4px;" data-final-font-size="30">
        <tspan x="0.0" dy="34.80px">Anachronistic Markings</tspan>
      </text>
      <rect id="ITEM_1_HEAD_FRAME" x="-180" y="-80" width="360" height="45" fill="none"/>
    </g>
    <g transform="translate(210.0, 720)">
      <rect id="ITEM_2_BG" x="-180.0" y="-150" width="360" height="390" rx="24" fill="var(--accent-6)" fill-opacity="0.48" stroke="var(--accent-1)" stroke-width="2.6"/>
      <text id="ITEM_2_HEAD" x="0.0" y="8.0" text-anchor="middle" font-weight="bold" font-size="30" fill="var(--primary-text)" data-bg-id="ITEM_2_BG" fill-opacity="1.0" stroke="none" style="font-size: 30px; font-family: Inter, Segoe UI, Kalam, Roboto, Helvetica, Arial, sans-serif; font-weight: 700; letter-spacing:-0.4px;" data-final-font-size="30">
        <tspan x="0.0" dy="33.80px">Missing Register</tspan>
        <tspan x="0.0" dy="31.50px">Numbers</tspan>
      </text>
      <rect id="ITEM_2_HEAD_FRAME" x="-150.0" y="8" width="300" height="70" fill="none"/>
      <text id="ITEM_2_BODY" x="0.0" y="82.0" text-anchor="middle" font-size="23" fill="var(--primary-text)" opacity="0.94" data-bg-id="ITEM_2_BG" data-max-lines="5" style="font-size: 26px; font-family: Inter, Segoe UI, Kalam, Roboto, Helvetica, Arial, sans-serif; font-weight: 400;" data-final-font-size="26">
        <tspan x="0.0" dy="34.33px">Lacks required Top Secret</tspan>
        <tspan x="0.0" dy="29.90px">identification numbers</tspan>
      </text>
      <rect id="ITEM_2_BODY_FRAME" x="-174" y="82" width="348" height="108" fill="none"/>
      <circle id="ITEM_2_PAD" cx="0" cy="-45.0" r="62" fill="var(--icon-pad-bg)" stroke="var(--background)" stroke-width="2" stroke-opacity="0.65" opacity="0.94" fill-opacity="0.9"/>
      <circle id="ITEM_2_PAD_INNER" cx="0" cy="-45.0" r="48.36" fill="var(--accent-6)" fill-opacity="0.22"/>
      <circle cx="0" cy="-45.0" r="49.6" fill="none" stroke="var(--accent-1)" stroke-width="3" stroke-dasharray="6 4"/>
      <g id="ITEM_2_ICON" transform="translate(-48.0, -93.0)" data-icon-size="96" stroke-dasharray="6 4">
        <g transform="translate(-4.45830508474577,-4.45830508474577) scale(4.371525423728814)" vector-effect="non-scaling-stroke" stroke-width="2.86" stroke-linecap="round" stroke-linejoin="round" stroke-opacity="1.0">
          <path d="m2 2 20 20" vector-effect="non-scaling-stroke" fill="none" stroke="#f1f5f9"/>
          <path d="M8.35 2.69A10 10 0 0 1 21.3 15.65" vector-effect="non-scaling-stroke" fill="none" stroke="#f1f5f9"/>
          <path d="M19.08 19.08A10 10 0 1 1 4.92 4.92" vector-effect="non-scaling-stroke" fill="none" stroke="#f1f5f9"/>
        </g>
      </g>
    </g>
    <g transform="translate(693.3, 720)">
      <rect id="ITEM_3_BG" x="-180.0" y="-150" width="360" height="390" rx="24" fill="var(--accent-1)" fill-opacity="0.48" stroke="var(--accent-2)" stroke-width="2.6"/>
      <text id="ITEM_3_HEAD" x="0.0" y="8.0" text-anchor="middle" font-weight="bold" font-size="30" fill="var(--primary-text)" data-bg-id="ITEM_3_BG" fill-opacity="1.0" stroke="none" style="font-size: 30px; font-family: Inter, Segoe UI, Kalam, Roboto, Helvetica, Arial, sans-serif; font-weight: 700; letter-spacing:-0.4px;" data-final-font-size="30">
        <tspan x="0.0" dy="49.55px">Isolated Records</tspan>
      </text>
      <rect id="ITEM_3_HEAD_FRAME" x="-150.0" y="8" width="300" height="70" fill="none"/>
      <text id="ITEM_3_BODY" x="0.0" y="82.0" text-anchor="middle" font-size="23" fill="var(--primary-text)" opacity="0.94" data-bg-id="ITEM_3_BG" data-max-lines="5" style="font-size: 26px; font-family: Inter, Segoe UI, Kalam, Roboto, Helvetica, Arial, sans-serif; font-weight: 400;" data-final-font-size="26">
        <tspan x="0.0" dy="34.33px">Found alone without any</tspan>
        <tspan x="0.0" dy="29.90px">supporting file material</tspan>
      </text>
      <rect id="ITEM_3_BODY_FRAME" x="-174" y="82" width="348" height="108" fill="none"/>
      <circle id="ITEM_3_PAD" cx="0" cy="-45.0" r="62" fill="var(--icon-pad-bg)" stroke="var(--background)" stroke-width="2" stroke-opacity="0.65" opacity="0.94" fill-opacity="0.9"/>
      <circle id="ITEM_3_PAD_INNER" cx="0" cy="-45.0" r="48.36" fill="var(--accent-1)" fill-opacity="0.22"/>
      <circle cx="0" cy="-45.0" r="49.6" fill="none" stroke="var(--accent-2)" stroke-width="3" stroke-dasharray="6 4"/>
      <g id="ITEM_3_ICON" transform="translate(-48.0, -93.0)" data-icon-size="96" stroke-dasharray="6 4">
        <g transform="translate(-9.315555555555555,-9.315555555555555) scale(4.776296296296296)" vector-effect="non-scaling-stroke" stroke-width="2.86" stroke-linecap="round" stroke-linejoin="round" stroke-opacity="1.0">
          <path d="m13.5 8.5-5 5" vector-effect="non-scaling-stroke" fill="none" stroke="#f1f5f9"/>
          <path d="m8.5 8.5 5 5" vector-effect="non-scaling-stroke" fill="none" stroke="#f1f5f9"/>
          <circle cx="11" cy="11" r="8" vector-effect="non-scaling-stroke" fill="none" stroke="#f1f5f9"/>
          <path d="m21 21-4.3-4.3" vector-effect="non-scaling-stroke" fill="none" stroke="#f1f5f9"/>
        </g>
      </g>
    </g>
    <g transform="translate(1226.7, 720)">
      <rect id="ITEM_4_BG" x="-180.0" y="-150" width="360" height="390" rx="24" fill="var(--accent-2)" fill-opacity="0.48" stroke="var(--accent-3)" stroke-width="2.6"/>
      <text id="ITEM_4_HEAD" x="0.0" y="8.0" text-anchor="middle" font-weight="bold" font-size="30" fill="var(--primary-text)" data-bg-id="ITEM_4_BG" fill-opacity="1.0" stroke="none" style="font-size: 30px; font-family: Inter, Segoe UI, Kalam, Roboto, Helvetica, Arial, sans-serif; font-weight: 700; letter-spacing:-0.4px;" data-final-font-size="30">
        <tspan x="0.0" dy="49.55px">Lack of Context</tspan>
      </text>
      <rect id="ITEM_4_HEAD_FRAME" x="-150.0" y="8" width="300" height="70" fill="none"/>
      <text id="ITEM_4_BODY" x="0.0" y="82.0" text-anchor="middle" font-size="23" fill="var(--primary-text)" opacity="0.94" data-bg-id="ITEM_4_BG" data-max-lines="5" style="font-size: 26px; font-family: Inter, Segoe UI, Kalam, Roboto, Helvetica, Arial, sans-serif; font-weight: 400;" data-final-font-size="26">
        <tspan x="0.0" dy="34.33px">No matching NSC meeting</tspan>
        <tspan x="0.0" dy="29.90px">records exist for it</tspan>
      </text>
      <rect id="ITEM_4_BODY_FRAME" x="-174" y="82" width="348" height="108" fill="none"/>
      <circle id="ITEM_4_PAD" cx="0" cy="-45.0" r="62" fill="var(--icon-pad-bg)" stroke="var(--background)" stroke-width="2" stroke-opacity="0.65" opacity="0.94" fill-opacity="0.9"/>
      <circle id="ITEM_4_PAD_INNER" cx="0" cy="-45.0" r="48.36" fill="var(--accent-2)" fill-opacity="0.22"/>
      <circle cx="0" cy="-45.0" r="49.6" fill="none" stroke="var(--accent-3)" stroke-width="3" stroke-dasharray="6 4"/>
      <g id="ITEM_4_ICON" transform="translate(-48.0, -93.0)" data-icon-size="96" stroke-dasharray="6 4">
        <g transform="translate(-9.315555555555555,-9.315555555555555) scale(4.776296296296296)" vector-effect="non-scaling-stroke" stroke-width="2.86" stroke-linecap="round" stroke-linejoin="round" stroke-opacity="1.0">
          <path d="M12 3v18" vector-effect="non-scaling-stroke" fill="none" stroke="#f1f5f9"/>
          <rect width="18" height="18" x="3" y="3" rx="2" vector-effect="non-scaling-stroke" fill="none" stroke="#f1f5f9"/>
          <path d="M3 9h18" vector-effect="non-scaling-stroke" fill="none" stroke="#f1f5f9"/>
          <path d="M3 15h18" vector-effect="non-scaling-stroke" fill="none" stroke="#f1f5f9"/>
        </g>
      </g>
    </g>
    <g transform="translate(1710.0, 720)">
      <rect id="ITEM_5_BG" x="-180.0" y="-150" width="360" height="390" rx="24" fill="var(--accent-3)" fill-opacity="0.48" stroke="var(--accent-4)" stroke-width="2.6"/>
      <text id="ITEM_5_HEAD" x="0.0" y="8.0" text-anchor="middle" font-weight="bold" font-size="30" fill="var(--primary-text)" data-bg-id="ITEM_5_BG" fill-opacity="1.0" stroke="none" style="font-size: 30px; font-family: Inter, Segoe UI, Kalam, Roboto, Helvetica, Arial, sans-serif; font-weight: 700; letter-spacing:-0.4px;" data-final-font-size="30">
        <tspan x="0.0" dy="33.80px">Physical</tspan>
        <tspan x="0.0" dy="31.50px">Irregularities</tspan>
      </text>
      <rect id="ITEM_5_HEAD_FRAME" x="-150.0" y="8" width="300" height="70" fill="none"/>
      <text id="ITEM_5_BODY" x="0.0" y="82.0" text-anchor="middle" font-size="23" fill="var(--primary-text)" opacity="0.94" data-bg-id="ITEM_5_BG" data-max-lines="5" style="font-size: 26px; font-family: Inter, Segoe UI, Kalam, Roboto, Helvetica, Arial, sans-serif; font-weight: 400;" data-final-font-size="26">
        <tspan x="0.0" dy="34.33px">Uses dictation onionskin paper</tspan>
        <tspan x="0.0" dy="29.90px">without official letterhead</tspan>
      </text>
      <rect id="ITEM_5_BODY_FRAME" x="-174" y="82" width="348" height="108" fill="none"/>
      <circle id="ITEM_5_PAD" cx="0" cy="-45.0" r="62" fill="var(--icon-pad-bg)" stroke="var(--background)" stroke-width="2" stroke-opacity="0.65" opacity="0.94" fill-opacity="0.9"/>
      <circle id="ITEM_5_PAD_INNER" cx="0" cy="-45.0" r="48.36" fill="var(--accent-3)" fill-opacity="0.22"/>
      <circle cx="0" cy="-45.0" r="49.6" fill="none" stroke="var(--accent-4)" stroke-width="3" stroke-dasharray="6 4"/>
      <g id="ITEM_5_ICON" transform="translate(-48.0, -93.0)" data-icon-size="96" stroke-dasharray="6 4">
        <g transform="translate(-9.315555555555555,-12.00222222222222) scale(4.776296296296296)" vector-effect="non-scaling-stroke" fill="#f1f5f9" fill-opacity="1.0" stroke="none">
          <path fill="#f1f5f9" d="M20 13h-4c0 1.1-.9 2-2 2h-4c-1.1 0-2-.9-2-2H4l-2 5v2c0 1.1.9 2 2 2h16c1.1 0 2-.9 2-2v-2M6 20c-.89 0-1.34-1.08-.71-1.71S7 18.11 7 19c0 .55-.45 1-1 1m4 0c-.89 0-1.34-1.08-.71-1.71S11 18.11 11 19c0 .55-.45 1-1 1m4 0c-.89 0-1.34-1.08-.71-1.71S15 18.11 15 19c0 .55-.45 1-1 1m4 0c-.89 0-1.34-1.08-.71-1.71S19 18.11 19 19c0 .55-.45 1-1 1m0-10V3H6v7H3v2h18v-2M8 5h8v1H8m0 1h6v1H8" vector-effect="non-scaling-stroke" stroke="none"/>
        </g>
      </g>
    </g>
  </g>
</svg>
